<?xml version="1.0" standalone="no"?>
<!DOCTYPE svg PUBLIC "-//W3C//DTD SVG 20010904//EN"
 "http://www.w3.org/TR/2001/REC-SVG-20010904/DTD/svg10.dtd">
<svg version="1.0" xmlns="http://www.w3.org/2000/svg"
 width="640.000000pt" height="640.000000pt" viewBox="0 0 640.000000 640.000000"
 preserveAspectRatio="xMidYMid meet">

<g transform="translate(0.000000,640.000000) scale(0.100000,-0.100000)"
fill="#000000" stroke="none">
<path d="M0 3200 l0 -3200 3200 0 3200 0 0 974 0 973 -27 -3 c-16 -2 -22 -1
-15 2 21 10 13 26 -10 18 -13 -3 -20 -3 -16 1 4 5 0 14 -10 21 -21 16 -10 27
41 44 36 11 37 13 37 59 0 41 -3 49 -30 64 -30 18 -40 37 -20 37 6 0 2 10 -10
22 -24 26 -25 34 -4 42 29 11 8 18 -31 10 -20 -3 -33 -9 -28 -13 15 -11 32
-95 22 -107 -7 -8 -6 -13 1 -16 8 -2 9 -21 4 -56 -6 -44 -10 -52 -28 -52 -20
0 -22 6 -24 67 -1 45 4 80 15 102 14 30 14 36 1 45 -8 6 -15 22 -14 36 1 21
-5 25 -39 31 -23 4 -58 17 -79 30 -34 20 -37 24 -20 30 17 7 17 8 -3 8 -23 1
-34 31 -12 31 6 0 17 6 24 14 12 12 11 15 -5 19 -14 4 -18 10 -13 23 4 12 3
15 -5 10 -7 -4 -12 -14 -12 -22 0 -8 -5 -14 -11 -14 -8 0 6 34 29 70 2 2 8 -2
13 -10 8 -12 10 -10 6 7 -4 20 -1 23 23 23 28 0 59 25 46 38 -12 11 114 28
162 21 l42 -6 0 1914 0 1913 -3200 0 -3200 0 0 -3200z m3516 1501 c-14 -16
-16 -26 -7 -55 5 -21 6 -34 0 -31 -5 4 -9 14 -9 23 0 15 -2 15 -11 2 -8 -11
-9 -8 -4 15 6 27 31 65 43 65 3 0 -3 -9 -12 -19z m595 -148 c13 -16 12 -17 -3
-4 -17 13 -22 21 -14 21 2 0 10 -8 17 -17z m39 -23 c0 -5 -5 -10 -11 -10 -5 0
-7 5 -4 10 3 6 8 10 11 10 2 0 4 -4 4 -10z m-2377 -265 c15 -10 17 -18 8 -32
-10 -17 -10 -17 -11 1 0 10 -8 25 -17 32 -10 7 -13 13 -8 13 6 0 18 -6 28 -14z
m97 -100 c0 -2 -7 -5 -15 -9 -9 -3 -15 0 -15 9 0 9 6 12 15 9 8 -4 15 -7 15
-9z m1482 -42 c3 -15 5 -15 22 2 18 19 18 19 11 -4 -4 -15 -3 -21 3 -17 11 6
22 -25 22 -63 0 -20 3 -22 12 -13 16 16 28 15 28 -3 0 -8 5 -15 10 -15 6 0 10
6 9 13 -6 50 16 62 51 27 21 -21 27 -50 9 -50 -5 0 -8 4 -5 9 3 5 -1 12 -10
15 -10 4 -13 2 -8 -7 5 -8 2 -7 -9 2 -15 11 -17 11 -17 -2 0 -11 -11 -14 -49
-13 -27 0 -52 4 -56 8 -4 4 -13 4 -20 2 -8 -3 -18 4 -25 15 -8 17 -8 21 4 21
14 0 16 23 3 36 -10 11 -8 54 2 54 5 0 11 -8 13 -17z m-56 -30 c-5 -12 -10
-13 -17 -6 -8 8 -7 16 2 26 16 17 24 5 15 -20z m-1356 13 c0 -8 -7 -16 -15
-20 -17 -6 -18 -4 -9 18 8 20 24 21 24 2z m1500 -14 c0 -15 -2 -15 -10 -2 -13
20 -13 33 0 25 6 -3 10 -14 10 -23z m57 6 c-3 -8 -6 -5 -6 6 -1 11 2 17 5 13
3 -3 4 -12 1 -19z m-307 -38 c0 -5 -5 -10 -11 -10 -5 0 -7 5 -4 10 3 6 8 10
11 10 2 0 4 -4 4 -10z m129 -40 c6 -18 6 -28 1 -25 -6 4 -16 3 -22 -2 -22 -13
-37 -12 -31 3 3 8 1 14 -5 14 -5 0 -13 -7 -16 -16 -3 -8 -10 -12 -16 -9 -5 3
-10 1 -10 -4 0 -6 -7 -11 -16 -11 -8 0 -13 -4 -10 -8 2 -4 -4 -13 -15 -20 -15
-10 -19 -10 -19 0 0 7 4 18 8 23 14 21 70 55 90 55 11 0 25 7 32 15 16 20 16
20 29 -15z m284 -7 c-9 -7 -13 -13 -9 -13 4 0 4 -5 0 -11 -4 -8 -9 -7 -15 2
-15 24 -10 34 16 34 23 0 24 -1 8 -12z m147 -24 c0 -6 -4 -7 -10 -4 -5 3 -10
11 -10 16 0 6 5 7 10 4 6 -3 10 -11 10 -16z m-182 -26 c11 -16 14 -16 22 -3 9
13 11 13 19 0 6 -9 6 -19 1 -26 -6 -6 -6 -15 -2 -19 4 -5 1 -5 -7 0 -9 5 -12
3 -9 -6 3 -8 17 -14 33 -14 17 1 38 -9 52 -23 19 -19 27 -21 38 -12 8 7 15 19
15 26 0 8 6 14 14 14 17 0 14 -32 -3 -38 -8 -3 -9 -8 -2 -15 5 -7 9 -16 9 -22
0 -5 9 -14 20 -20 20 -9 20 -10 -10 -37 -18 -15 -36 -28 -42 -28 -14 1 -53 30
-40 31 18 1 -41 22 -61 22 -11 -1 -23 4 -26 9 -5 7 -13 7 -25 0 -10 -6 -27 -7
-39 -2 -26 10 -77 1 -69 -11 7 -12 -75 -2 -90 10 -6 5 -20 5 -31 1 -29 -10
-56 9 -44 32 5 10 16 18 25 18 8 0 33 9 56 21 23 12 63 27 90 35 26 8 48 18
48 23 0 4 -25 7 -55 7 -30 -1 -55 -5 -55 -10 0 -4 -6 -6 -14 -3 -8 3 -16 1
-18 -5 -2 -5 -17 -11 -34 -12 -17 -2 -36 -6 -42 -9 -5 -4 -12 -2 -14 5 -7 21
-81 -14 -96 -45 -10 -20 -20 -27 -40 -27 l-27 1 21 17 c90 72 171 115 205 108
15 -3 37 3 55 14 39 24 152 20 172 -7z m846 14 c15 -11 12 -12 -24 -9 -24 3
-54 -2 -74 -12 -43 -20 -45 -20 -39 3 8 30 104 42 137 18z m-637 -60 c3 -21 1
-37 -4 -37 -5 0 -9 8 -9 18 0 9 -4 31 -8 47 -5 22 -4 27 4 19 6 -6 13 -27 17
-47z m-1871 14 c-12 -19 -24 -12 -19 10 4 13 9 17 15 11 6 -6 7 -15 4 -21z
m49 9 c3 -5 1 -10 -4 -10 -6 0 -11 5 -11 10 0 6 2 10 4 10 3 0 8 -4 11 -10z
m1195 -4 c0 -2 -12 -12 -27 -21 l-28 -18 19 21 c17 20 36 29 36 18z m-1162
-59 c2 -15 -1 -27 -7 -27 -6 0 -11 3 -11 8 0 4 -3 18 -7 31 -4 18 -2 23 8 19
8 -2 15 -17 17 -31z m-78 -2 c0 -8 -2 -15 -4 -15 -2 0 -6 7 -10 15 -3 8 -1 15
4 15 6 0 10 -7 10 -15z m1130 -15 c0 -5 -2 -10 -4 -10 -3 0 -8 5 -11 10 -3 6
-1 10 4 10 6 0 11 -4 11 -10z m818 -13 c5 -24 -15 -21 -21 4 -3 13 -1 19 6 16
7 -2 13 -11 15 -20z m-2093 -77 c-4 -19 -7 -47 -8 -62 0 -17 -6 -28 -14 -28
-10 0 -12 7 -8 20 4 12 2 20 -5 20 -7 0 -9 9 -6 23 3 12 3 16 0 10 -8 -19 -24
-16 -25 5 0 12 -3 10 -11 -8 -7 -17 -12 -20 -15 -11 -4 11 -7 11 -13 0 -12
-18 -36 3 -43 37 -5 27 8 42 17 19 3 -8 10 -15 15 -15 6 0 8 7 5 15 -7 17 13
20 36 6 10 -7 18 -4 27 9 12 17 17 18 34 7 17 -10 19 -18 14 -47z m149 -75 c7
-18 6 -18 -12 3 -11 12 -24 22 -29 22 -16 0 -13 68 5 86 16 17 17 15 23 -37 3
-30 9 -63 13 -74z m1946 96 c0 -28 -29 -68 -66 -89 -17 -11 -18 -11 -1 -12 10
0 15 -4 12 -10 -11 -19 22 -10 59 15 20 13 36 20 36 15 0 -14 -49 -48 -80 -55
-17 -4 -32 -11 -35 -16 -4 -5 -19 -9 -35 -9 l-29 0 20 23 c47 51 89 110 89
124 0 8 5 11 10 8 6 -3 10 1 10 9 0 29 -31 16 -46 -19 -8 -19 -19 -35 -24 -35
-6 0 0 18 12 40 29 50 68 57 68 11z m-1070 -61 c0 -5 -4 -10 -9 -10 -6 0 -13
5 -16 10 -3 6 1 10 9 10 9 0 16 -4 16 -10z m1448 -65 c-3 -15 -5 -15 -25 2
-12 11 -25 32 -29 49 l-7 29 32 -32 c18 -17 31 -39 29 -48z m-2429 20 c0 -5
-4 -3 -9 5 -5 8 -9 22 -9 30 0 16 17 -16 18 -35z m97 -53 c15 -14 27 -1 18 21
-4 12 0 14 15 10 13 -3 25 -21 35 -51 22 -64 20 -70 -12 -39 -16 15 -31 24
-35 20 -12 -11 -7 -68 7 -89 10 -14 12 -35 8 -74 -6 -48 -10 -54 -36 -61 -28
-8 -28 -7 -22 29 3 20 6 47 6 60 0 12 4 22 9 22 12 0 5 60 -9 74 -13 13 -13
29 0 21 21 -13 9 27 -15 51 -29 29 -28 25 -14 61 l12 28 10 -35 c6 -19 17 -41
23 -48z m924 48 c0 -11 -2 -20 -4 -20 -2 0 -6 9 -9 20 -3 11 -1 20 4 20 5 0 9
-9 9 -20z m-1113 -30 c3 -10 2 -11 -4 -4 -4 6 -15 14 -23 17 -11 5 -9 6 4 4
11 -1 21 -9 23 -17z m2096 -37 c-18 -9 -33 -20 -33 -25 0 -4 -7 -8 -15 -8 -8
0 -14 -6 -12 -12 1 -8 -7 -12 -22 -10 -16 1 -22 -2 -18 -11 4 -10 -8 -14 -48
-16 -53 -2 -82 12 -47 23 10 4 34 20 52 36 32 28 41 31 155 38 14 0 10 -4 -12
-15z m564 6 c-10 -6 -29 -28 -42 -50 -25 -39 -50 -48 -89 -33 -31 12 -15 21
28 17 43 -5 45 -4 51 23 12 51 14 54 42 54 24 -1 26 -2 10 -11z m-987 -39 c0
-5 -4 -10 -10 -10 -5 0 -10 5 -10 10 0 6 5 10 10 10 6 0 10 -4 10 -10z m-1580
-30 c0 -5 -4 -10 -10 -10 -5 0 -10 5 -10 10 0 6 5 10 10 10 6 0 10 -4 10 -10z
m2345 0 c-3 -5 -1 -10 4 -10 6 0 11 -9 11 -21 0 -11 -3 -18 -8 -15 -4 2 -15
-2 -25 -9 -21 -15 -12 -45 14 -45 28 0 13 -26 -16 -28 -50 -4 -56 -6 -51 -18
3 -8 0 -11 -10 -7 -9 3 -14 -1 -15 -13 0 -11 -3 -14 -6 -6 -6 14 -33 16 -33 2
0 -5 -5 -10 -10 -10 -6 0 -10 6 -9 13 4 29 -2 47 -15 47 -8 0 -18 5 -22 12 -4
7 -3 8 5 4 7 -4 20 2 31 16 14 16 19 19 20 8 0 -8 8 -1 16 17 10 19 28 36 46
42 38 13 41 14 33 1 -3 -5 0 -7 9 -4 8 3 17 12 20 20 3 8 8 14 11 14 4 0 3 -4
0 -10z m-2307 -25 c-3 -3 -9 2 -12 12 -6 14 -5 15 5 6 7 -7 10 -15 7 -18z m36
-18 c4 -18 3 -26 -3 -23 -5 4 -11 -5 -13 -19 -3 -25 -4 -25 -23 -10 -11 9 -15
14 -9 11 13 -7 27 21 18 35 -3 5 0 9 5 9 6 0 11 8 11 17 0 22 6 14 14 -20z
m1791 3 c15 -6 7 -9 -30 -9 -32 -1 -45 -4 -36 -10 17 -11 4 -18 -33 -17 -37 1
-48 26 -11 26 15 0 24 4 20 10 -8 12 61 12 90 0z m-1608 -25 c9 -25 -2 -27
-22 -5 -17 18 -17 20 -1 20 9 0 19 -7 23 -15z m1469 -26 c10 -16 -17 -29 -31
-16 -7 7 -11 15 -8 20 6 11 31 9 39 -4z m814 -5 c0 -2 -9 -4 -21 -4 -11 0 -18
4 -14 10 5 8 35 3 35 -6z m230 -36 c12 -11 16 -27 14 -48 -5 -44 -14 -54 -29
-34 -7 11 -19 15 -30 11 -12 -5 -16 -3 -12 7 4 10 1 13 -9 9 -8 -3 -13 -12
-10 -20 8 -21 -4 -39 -15 -22 -7 11 -9 9 -9 -6 1 -11 7 -29 15 -39 13 -17 15
-17 15 -4 0 9 5 20 11 24 13 7 3 -35 -12 -50 -9 -10 -48 31 -49 52 0 22 -19
13 -35 -19 -13 -23 -14 -34 -5 -44 7 -8 9 -19 5 -24 -3 -6 -2 -27 4 -46 6 -23
6 -35 0 -35 -6 0 -8 -8 -5 -17 7 -21 -13 -55 -20 -36 -3 7 -12 9 -20 6 -8 -3
-14 -1 -14 5 0 6 -3 17 -6 26 -4 9 5 25 21 40 23 21 23 24 6 19 -17 -4 -20 -1
-18 25 1 17 5 28 8 26 4 -2 10 3 13 12 9 22 8 24 -9 24 -11 0 -14 7 -10 23 3
12 7 35 9 51 3 16 14 37 26 48 11 10 20 23 20 28 0 6 9 5 20 -2 17 -11 22 -10
29 0 6 10 10 9 14 -7 3 -12 11 -21 17 -21 7 0 10 7 6 17 -4 9 -2 19 4 23 6 4
13 16 15 26 2 10 4 21 5 24 0 3 6 -4 12 -15 6 -11 19 -28 28 -37z m-2456 0 c3
-13 6 -30 6 -37 0 -23 -16 0 -24 32 -8 32 9 37 18 5z m1380 7 c3 -8 2 -14 -2
-13 -4 1 -17 -3 -29 -10 -26 -14 -44 -9 -61 18 -11 19 -10 20 37 20 34 0 51
-5 55 -15z m966 -5 c0 -5 -4 -10 -10 -10 -5 0 -10 5 -10 10 0 6 5 10 10 10 6
0 10 -4 10 -10z m-1455 -60 c15 0 26 7 30 20 3 11 14 20 23 20 23 0 64 -29 59
-43 -3 -10 -14 -13 -62 -20 -11 -2 -31 -9 -44 -16 -21 -12 -23 -11 -18 2 5 13
2 13 -24 0 -17 -8 -31 -13 -33 -12 -28 42 -32 56 -25 77 l9 24 31 -26 c17 -14
41 -26 54 -26z m1146 -3 l-23 -22 17 28 c10 15 20 25 23 22 3 -3 -5 -16 -17
-28z m-682 -15 c31 -21 75 -44 98 -51 23 -8 40 -18 36 -24 -3 -5 3 -7 14 -3
13 4 30 -2 48 -16 16 -12 42 -22 61 -22 18 0 30 -4 27 -9 -3 -5 4 -6 17 -2 20
6 22 4 18 -13 -3 -12 -2 -22 3 -24 5 -2 2 -15 -6 -30 -14 -29 -8 -37 13 -16 9
9 12 8 12 -5 0 -9 -6 -17 -14 -17 -8 0 -16 -6 -19 -12 -5 -18 -37 9 -37 31 0
14 2 14 10 1 8 -12 10 -11 10 8 0 20 -19 29 -52 23 -12 -2 -9 27 2 34 6 4 19
1 28 -7 15 -12 16 -11 3 4 -16 21 -61 21 -54 0 4 -10 -1 -11 -21 -6 -30 7 -34
-3 -8 -22 9 -7 13 -13 7 -13 -5 0 -28 15 -49 34 -22 19 -33 35 -26 35 20 0 3
13 -22 17 -12 2 -25 7 -28 12 -3 5 -14 11 -25 15 -26 8 -126 101 -118 110 10
9 12 9 72 -32z m661 24 c0 -3 -15 -15 -32 -27 l-33 -23 24 27 c22 24 41 35 41
23z m780 -31 c12 -22 55 -45 86 -45 8 0 23 9 33 19 21 21 63 18 59 -5 -2 -7 6
-20 17 -29 19 -15 19 -15 -10 -9 l-30 6 23 -17 c17 -13 20 -20 12 -30 -8 -10
-7 -14 2 -18 9 -4 7 -6 -4 -6 -20 -1 -30 -42 -24 -94 5 -35 -7 -52 -17 -24 -3
9 -8 9 -21 -2 -15 -13 -19 -13 -26 0 -8 11 -12 11 -24 -6 -14 -18 -15 -18 -16
-3 0 10 -3 17 -7 17 -22 -4 -33 3 -33 17 0 11 -6 15 -20 11 -24 -6 -25 5 -4
66 9 26 14 52 12 59 -5 15 -40 -95 -42 -132 -2 -53 -13 -41 -21 22 l-8 63 -8
-50 c-12 -76 -19 -96 -29 -90 -6 3 -10 25 -10 48 -1 23 -7 69 -15 102 -8 32
-11 62 -8 65 3 3 8 0 10 -7 8 -23 43 20 43 54 0 24 4 31 14 27 8 -3 17 -1 21
5 11 18 31 12 45 -14z m-1485 -5 c3 -5 2 -10 -4 -10 -5 0 -13 5 -16 10 -3 6
-2 10 4 10 5 0 13 -4 16 -10z m495 -14 c0 -3 -4 -8 -10 -11 -5 -3 -10 -1 -10
4 0 6 5 11 10 11 6 0 10 -2 10 -4z m-1989 -33 c13 -16 12 -17 -3 -4 -10 7 -18
15 -18 17 0 8 8 3 21 -13z m1039 13 c0 -3 -4 -8 -10 -11 -5 -3 -10 -1 -10 4 0
6 5 11 10 11 6 0 10 -2 10 -4z m2505 -37 c15 -6 10 -8 -21 -8 -61 -1 -134 10
-134 21 0 11 122 0 155 -13z m-2120 -51 c33 -17 67 -36 75 -43 8 -7 36 -24 62
-39 59 -34 108 -81 131 -126 18 -34 18 -34 -32 13 -28 26 -55 47 -61 47 -15 0
-41 26 -33 33 3 4 15 2 27 -4 20 -10 20 -9 3 5 -11 8 -25 12 -33 9 -8 -3 -14
0 -14 7 0 7 -8 9 -20 5 -11 -3 -20 -2 -20 4 0 12 -60 42 -71 35 -5 -3 -9 2 -9
10 0 9 -7 16 -15 16 -8 0 -15 5 -15 10 0 6 -4 10 -9 10 -5 0 -7 -10 -4 -22 3
-13 1 -19 -4 -13 -4 6 -17 10 -28 10 -14 0 -20 7 -21 22 -1 13 -7 30 -14 38
-12 14 -10 15 16 9 16 -3 56 -20 89 -36z m1401 -36 c-13 -12 -17 8 -9 44 l8
39 3 -39 c2 -21 1 -41 -2 -44z m399 69 c-3 -5 5 -11 17 -13 12 -2 23 -9 26
-17 3 -10 -3 -12 -29 -6 -44 9 -59 23 -39 35 19 12 33 13 25 1z m422 -7 c7 3
13 1 13 -4 0 -6 -8 -10 -18 -10 -33 0 -32 -12 1 -39 36 -28 40 -62 6 -54 -32
9 -21 -6 17 -22 20 -8 40 -12 45 -9 5 3 9 1 9 -4 0 -5 -12 -15 -27 -22 -27
-13 -27 -14 -5 -18 12 -2 20 -8 17 -13 -8 -13 9 -11 22 2 13 13 33 4 33 -17 0
-8 8 -14 18 -14 16 -1 16 -2 0 -13 -20 -16 -8 -40 15 -31 13 5 16 2 11 -10 -5
-14 17 -48 31 -46 12 1 54 -49 46 -54 -25 -16 25 -66 65 -66 7 0 14 -5 16 -11
2 -6 21 -12 43 -13 26 -3 44 -10 53 -24 11 -17 17 -19 32 -9 15 9 26 8 52 -4
31 -15 32 -16 12 -27 -12 -6 -38 -12 -58 -14 -20 -1 -41 -7 -47 -14 -12 -15
89 -28 107 -14 8 8 13 4 17 -12 7 -27 -7 -38 -48 -36 -17 1 -40 -4 -52 -10
-27 -15 -46 -15 -38 -2 10 16 -10 12 -36 -7 -36 -27 -89 -55 -89 -48 0 4 -13
-3 -29 -14 -31 -22 -66 -27 -76 -12 -3 6 11 11 30 13 19 2 36 8 36 13 0 6 14
18 32 28 18 9 25 16 17 15 -8 -1 -32 6 -54 15 -21 9 -42 17 -47 17 -5 0 -9 5
-9 11 0 6 9 8 22 3 19 -6 21 -5 11 8 -7 8 -10 18 -6 21 3 4 2 7 -4 7 -6 0 -14
16 -17 35 -4 19 -13 35 -20 35 -7 0 -22 11 -33 24 -15 17 -18 28 -11 40 8 14
5 19 -12 23 -13 4 -19 11 -15 20 4 12 0 14 -22 8 -31 -7 -53 -33 -46 -52 7
-17 -9 -16 -33 2 -19 15 -19 15 0 30 22 17 5 20 -24 5 -12 -6 -21 -7 -25 -1
-3 6 4 15 16 22 20 10 21 12 5 21 -11 6 -22 6 -31 -2 -16 -14 -35 -5 -35 16 0
8 -7 17 -15 20 -8 4 -12 10 -9 15 3 5 -2 6 -10 3 -11 -4 -16 0 -16 10 0 9 -5
16 -11 16 -5 0 -9 10 -7 22 2 16 -3 22 -20 23 -27 2 -68 -31 -64 -51 6 -29
-18 -12 -26 19 -6 22 -14 31 -25 29 -10 -2 -17 2 -17 8 0 5 9 10 19 10 14 0
18 5 14 19 -3 11 2 21 11 24 19 7 7 52 -14 52 -27 0 -19 21 15 39 19 11 35 24
35 29 0 6 25 8 63 5 58 -5 60 -5 32 8 -16 7 -39 13 -49 14 -11 0 -16 3 -13 6
8 8 80 17 130 15 22 0 35 3 32 9 -4 6 4 6 21 0 15 -6 33 -9 41 -6z m-241 -3
c-5 -8 -56 -3 -56 5 0 2 14 4 31 4 16 0 28 -4 25 -9z m-836 -52 c0 -9 -9 -24
-20 -34 -19 -17 -19 -17 -11 13 5 17 7 33 4 36 -3 2 -2 10 2 16 9 14 25 -6 25
-31z m-2430 21 c0 -5 -2 -10 -4 -10 -3 0 -8 5 -11 10 -3 6 -1 10 4 10 6 0 11
-4 11 -10z m39 3 c-4 -22 3 -24 21 -8 20 18 20 17 20 -17 0 -20 7 -41 15 -48
17 -14 20 -40 5 -40 -18 0 3 -32 29 -42 15 -6 21 -12 14 -15 -18 -6 -16 -34 3
-61 23 -34 3 -26 -44 16 -27 25 -44 50 -48 72 -4 19 -12 41 -18 49 -8 11 -8
15 2 18 17 6 15 23 -3 23 -10 0 -15 10 -15 30 0 17 5 30 10 30 6 0 9 -3 9 -7z
m3051 -24 c0 -14 -17 -10 -23 5 -4 10 -1 13 9 9 7 -3 14 -9 14 -14z m490 6 c0
-10 -10 -15 -27 -15 l-28 0 25 14 c14 8 26 14 28 15 1 1 2 -6 2 -14z m-1918
-66 c10 -16 12 -29 7 -29 -6 0 -13 9 -16 20 -3 10 -14 22 -24 25 -24 8 -25 25
-1 19 9 -3 25 -18 34 -35z m1483 31 c-3 -5 -10 -10 -16 -10 -5 0 -9 5 -9 10 0
6 7 10 16 10 8 0 12 -4 9 -10z m-451 -16 c11 -28 6 -38 -9 -18 -8 10 -15 22
-15 27 0 13 18 7 24 -9z m416 -28 c0 -2 -7 -16 -15 -32 -11 -23 -15 -25 -20
-11 -4 9 -1 23 7 31 12 14 28 21 28 12z m-1455 -36 c10 -11 16 -20 13 -20 -3
0 -13 9 -23 20 -10 11 -16 20 -13 20 3 0 13 -9 23 -20z m759 -4 c-3 -9 -10
-16 -15 -16 -6 0 -5 9 1 21 13 24 24 20 14 -5z m771 14 c3 -5 1 -10 -4 -10 -6
0 -11 5 -11 10 0 6 2 10 4 10 3 0 8 -4 11 -10z m-820 -51 c-9 -14 -34 2 -28
17 4 11 9 12 19 3 8 -6 11 -15 9 -20z m825 11 c0 -5 -4 -10 -9 -10 -6 0 -13 5
-16 10 -3 6 1 10 9 10 9 0 16 -4 16 -10z m-430 -16 c0 -8 -4 -12 -10 -9 -5 3
-10 10 -10 16 0 5 5 9 10 9 6 0 10 -7 10 -16z m367 -16 c-3 -8 -6 -5 -6 6 -1
11 2 17 5 13 3 -3 4 -12 1 -19z m-780 -20 c-3 -8 -6 -5 -6 6 -1 11 2 17 5 13
3 -3 4 -12 1 -19z m-2117 -59 c153 -18 330 -73 330 -101 0 -5 12 -20 28 -34
30 -28 28 -28 -40 4 -26 12 -68 27 -95 32 -78 17 -476 24 -585 11 -110 -13
-243 -51 -281 -81 l-26 -20 9 31 c14 46 28 59 105 94 59 28 117 45 230 68 41
9 243 7 325 -4z m700 -10 c0 -14 -16 -11 -29 5 -10 12 -8 13 8 9 12 -3 21 -9
21 -14z m435 -11 c22 -6 43 -15 47 -22 4 -6 11 -11 15 -11 15 -1 103 -57 103
-66 0 -5 -1 -9 -2 -9 -9 1 -77 28 -96 38 -12 7 -27 10 -32 7 -9 -5 -49 12 -60
26 -6 9 -224 -6 -239 -16 -7 -4 -18 1 -26 11 -14 18 -14 18 -15 -1 0 -14 -3
-16 -11 -8 -14 14 -3 33 20 33 9 0 22 5 29 12 8 8 12 8 12 1 0 -7 17 -4 48 7
49 20 124 19 207 -2z m2130 -128 c8 -13 -5 -13 -25 0 -13 8 -13 10 2 10 9 0
20 -4 23 -10z m-3251 -25 c-4 -15 -2 -25 5 -25 6 0 11 -9 11 -20 0 -18 3 -19
21 -10 16 9 20 8 18 -2 -1 -7 -1 -24 0 -38 1 -20 3 -22 11 -10 5 8 11 12 14
10 2 -3 -1 -13 -8 -22 -11 -15 -16 -15 -66 3 -76 27 -74 26 -76 2 -1 -15 7
-25 27 -34 30 -12 39 -29 16 -29 -7 0 -18 5 -24 11 -9 9 -20 9 -44 0 -18 -6
-34 -9 -37 -6 -2 2 -24 -9 -48 -26 -49 -33 -58 -26 -17 15 28 28 64 42 88 32
17 -6 19 2 5 24 -5 8 -12 12 -15 8 -7 -6 -45 21 -45 32 0 4 15 5 33 3 l32 -3
-28 9 c-16 6 -35 7 -43 4 -9 -3 -12 0 -9 9 8 19 -21 56 -33 43 -14 -15 -3 -75
13 -69 7 3 16 1 19 -4 3 -5 -5 -12 -18 -14 -27 -5 -36 11 -36 70 0 28 3 32 28
32 15 0 32 4 38 9 14 14 42 19 112 20 62 1 62 1 56 -24z m-251 -12 c-7 -2 -19
-2 -25 0 -7 3 -2 5 12 5 14 0 19 -2 13 -5z m-600 -33 c8 -11 17 -17 20 -14 13
13 38 -72 35 -120 -3 -53 -16 -66 -41 -41 -18 17 -47 20 -47 4 0 -5 -5 -7 -10
-4 -6 4 -8 11 -5 16 12 18 -26 22 -39 4 -16 -22 -25 -10 -30 36 -2 18 -9 35
-15 37 -7 2 -5 9 5 19 8 8 18 13 21 9 4 -3 13 0 22 7 9 8 25 17 36 21 16 6 18
5 8 -5 -15 -15 -17 -58 -4 -78 6 -10 8 0 4 27 -5 34 -3 42 11 42 9 0 16 8 16
20 0 11 -4 20 -10 20 -5 0 -10 5 -10 10 0 17 18 11 33 -10z m-333 -11 c0 -5
-4 -8 -9 -5 -11 7 -25 -49 -17 -63 4 -5 2 -12 -3 -15 -11 -7 -26 69 -16 84 8
13 45 13 45 -1z m104 -51 c4 -22 3 -38 -2 -38 -12 0 -22 48 -15 67 7 18 9 15
17 -29z m393 -34 c-3 -3 -12 -4 -19 -1 -8 3 -5 6 6 6 11 1 17 -2 13 -5z m-385
-43 c3 -23 1 -27 -14 -23 -10 2 -18 9 -18 14 0 5 5 6 10 3 6 -3 10 3 10 14 0
30 7 26 12 -8z m25 -13 c-3 -8 -6 -5 -6 6 -1 11 2 17 5 13 3 -3 4 -12 1 -19z
m973 8 c0 -8 14 -19 30 -25 28 -9 43 -41 19 -41 -5 0 -7 -4 -4 -10 4 -6 13 -5
25 2 10 7 17 15 14 19 -2 4 3 9 12 11 13 3 12 6 -5 25 -27 29 -26 35 3 22 37
-17 43 -59 12 -85 -21 -19 -23 -24 -11 -34 11 -9 15 -9 15 -1 0 6 6 11 14 11
9 0 12 -7 9 -20 -6 -22 12 -28 20 -7 3 7 9 2 15 -13 11 -28 6 -42 -8 -20 -8
12 -10 10 -10 -7 0 -13 -4 -23 -10 -23 -5 0 -9 6 -7 13 1 6 -5 12 -13 12 -11
0 -14 -10 -12 -40 2 -22 8 -45 13 -52 7 -8 1 -14 -18 -21 -15 -6 -22 -11 -15
-11 21 -2 13 -21 -9 -21 -11 0 -18 4 -14 9 10 17 -12 21 -25 6 -7 -8 -21 -15
-31 -15 -27 0 -69 22 -67 34 2 6 -10 23 -25 38 -31 31 -37 89 -12 126 9 12 15
27 14 34 -3 27 2 37 21 43 11 3 23 17 26 31 7 25 34 34 34 10z m3435 -56 c-3
-5 -1 -10 6 -10 9 0 9 -3 -1 -15 -10 -12 -6 -13 23 -8 33 5 36 3 39 -23 2 -18
9 -29 18 -29 9 0 16 -12 18 -30 2 -16 8 -36 14 -42 6 -7 8 -20 4 -28 -3 -8 -1
-15 5 -15 6 0 7 -5 4 -10 -4 -6 -1 -17 5 -25 7 -8 10 -21 7 -29 -3 -8 1 -17 9
-20 22 -8 9 -22 -26 -30 -17 -3 -30 -11 -29 -18 7 -51 -40 -120 -66 -98 -7 5
-15 7 -18 3 -10 -9 -38 18 -31 29 4 6 -5 21 -20 33 -18 15 -23 24 -14 27 10 4
10 8 -1 21 -7 10 -9 17 -4 17 5 0 9 8 9 19 0 10 -6 17 -12 14 -7 -3 -13 9 -16
31 -2 20 1 37 7 40 5 2 -2 8 -16 14 -28 11 -42 41 -29 62 4 7 12 10 18 6 6 -3
14 -1 18 5 5 8 2 10 -7 4 -8 -4 2 7 21 24 25 23 29 30 15 27 -11 -3 -26 -2
-34 3 -11 7 -9 12 10 24 59 36 86 46 74 27z m-853 -66 c1 -16 7 -32 13 -36 6
-5 3 -8 -7 -8 -10 0 -18 -4 -18 -10 0 -5 -7 -7 -16 -3 -14 5 -16 1 -12 -19 4
-22 1 -27 -24 -32 -19 -4 -35 -1 -44 8 -20 20 -18 24 19 46 33 21 31 28 -4 10
-10 -6 -19 -7 -19 -3 0 4 19 17 41 28 23 11 47 27 52 37 14 21 16 19 19 -18z
m-136 -51 c20 -7 7 -23 -14 -17 -9 3 -1 -8 18 -25 19 -17 40 -31 47 -31 7 0
13 -4 13 -9 0 -23 -22 -19 -64 14 -45 34 -76 45 -76 26 0 -5 16 -19 35 -31 37
-23 45 -40 20 -40 -8 0 -15 5 -15 10 0 6 -7 10 -16 10 -9 0 -12 5 -8 12 5 8 2
9 -9 5 -10 -4 -16 -2 -14 5 1 7 -7 14 -18 16 -35 7 -41 22 -9 22 34 0 54 18
75 68 l14 33 3 -31 c2 -17 10 -34 18 -37z m-3157 -5 l21 -33 -6 35 -5 35 18
-33 c11 -18 22 -30 25 -27 3 3 2 -13 -2 -37 -5 -24 -6 -46 -4 -50 3 -5 1 -8
-4 -8 -9 0 -18 16 -48 90 -10 25 -23 48 -29 52 -6 5 -6 8 2 8 6 0 20 -15 32
-32z m-36 -15 c-5 -12 -3 -14 7 -8 8 5 11 4 6 -3 -4 -6 -13 -9 -21 -5 -9 3
-26 -2 -39 -11 -18 -11 -26 -12 -29 -3 -2 7 -8 8 -13 3 -5 -5 -4 -11 4 -13 19
-7 14 -23 -8 -23 -14 0 -18 5 -13 17 4 10 2 14 -5 9 -6 -3 -13 -2 -17 4 -4 6
-11 8 -16 5 -5 -4 -9 3 -9 13 0 26 13 30 87 27 42 -2 61 1 56 8 -3 6 -1 7 5 3
6 -4 8 -14 5 -23z m-329 -5 c3 -13 5 -34 5 -48 -1 -17 -3 -19 -6 -7 -2 9 -8
15 -13 12 -14 -9 -21 12 -14 40 8 31 20 32 28 3z m43 -31 c4 -24 2 -37 -5 -37
-13 0 -31 59 -24 78 7 21 22 -1 29 -41z m51 28 c7 -6 8 -62 2 -85 -6 -24 -7
-23 -15 10 -4 19 -14 48 -22 63 -14 28 -14 29 9 22 13 -4 24 -9 26 -10z m3832
-10 c0 -27 -44 -60 -80 -59 -19 0 -45 -4 -57 -9 -13 -6 -32 -6 -50 1 l-28 10
38 16 c21 9 42 14 47 11 5 -3 28 2 51 12 36 14 39 18 23 24 -14 6 -9 8 19 8
26 1 37 -3 37 -14z m-3770 -4 c0 -5 3 -18 6 -28 6 -16 5 -16 -9 2 -19 23 -21
35 -7 35 6 0 10 -4 10 -9z m214 -44 c6 -25 4 -27 -11 -19 -10 5 -24 11 -31 13
-9 3 -8 10 4 27 18 26 28 21 38 -21z m866 29 c0 -8 -4 -18 -10 -21 -5 -3 -10
3 -10 14 0 12 5 21 10 21 6 0 10 -6 10 -14z m-927 -12 c-3 -8 -12 -13 -20 -10
-8 3 -17 6 -19 6 -3 0 -2 5 1 10 11 17 45 12 38 -6z m4657 -8 c0 -2 -9 -6 -20
-9 -11 -3 -18 -1 -14 4 5 9 34 13 34 5z m-987 -23 c-21 -8 -15 -23 10 -23 21
-1 22 -1 3 -15 -20 -15 -20 -15 0 -29 13 -10 23 -11 32 -4 7 6 14 9 17 7 6 -6
-22 -87 -44 -129 -19 -35 -37 -97 -33 -113 4 -13 -42 14 -60 37 -10 11 -18 16
-18 9 0 -6 5 -15 11 -18 6 -4 8 -13 5 -20 -2 -7 2 -16 10 -19 17 -6 19 -36 3
-36 -8 0 -8 -5 1 -15 10 -12 10 -15 -3 -15 -18 0 -131 123 -168 183 -14 23
-24 48 -22 55 3 7 -1 10 -11 6 -9 -3 -16 -8 -16 -11 0 -12 67 -100 149 -193
50 -57 89 -106 86 -108 -2 -3 -11 1 -20 8 -18 15 -19 3 -5 -34 6 -17 6 -26 0
-26 -19 0 -10 -21 15 -32 14 -6 25 -15 25 -20 0 -5 -13 0 -29 11 -16 12 -37
21 -48 20 -11 0 -13 -3 -5 -6 16 -6 -3 -33 -23 -33 -7 0 -12 -7 -11 -16 0 -9
-5 -19 -13 -22 -8 -2 -11 0 -8 5 5 8 -43 53 -57 53 -2 0 -7 -11 -10 -25 -6
-24 -26 -35 -26 -14 0 5 -4 8 -8 5 -5 -3 -8 5 -8 17 1 20 -3 22 -43 19 -37 -3
-43 -1 -38 12 4 10 1 16 -7 16 -8 0 -16 9 -19 20 -3 12 -14 21 -29 22 -12 0
-29 2 -35 2 -7 1 -12 6 -10 11 1 6 5 9 9 8 9 -3 22 37 14 44 -3 3 4 17 14 31
11 13 20 30 20 37 0 11 10 10 52 -1 29 -7 52 -12 53 -11 0 1 6 17 12 35 10 29
9 32 -8 32 -10 0 -19 5 -19 11 0 6 9 8 22 4 17 -6 20 -4 15 9 -3 8 0 19 8 24
12 6 10 16 -11 57 -15 28 -23 47 -19 43 4 -4 16 3 26 15 16 19 20 20 28 7 9
-13 12 -12 25 5 9 11 16 23 16 28 0 4 9 7 19 7 11 0 28 10 38 23 16 21 52 37
93 42 8 1 24 6 35 12 11 7 22 9 25 6 3 -3 -1 -8 -7 -10z m1087 -35 c0 -21 -9
-20 -77 8 -36 16 -45 29 -13 21 11 -3 20 -1 20 3 0 4 16 3 35 -3 24 -7 35 -16
35 -29z m-3840 -5 c0 -11 -57 -42 -64 -36 -3 3 5 14 17 24 23 19 47 25 47 12z
m-236 -39 c19 -18 66 -26 66 -11 0 7 4 7 12 -1 7 -7 21 -12 32 -12 19 0 19 -1
-2 -23 -29 -31 -28 -41 4 -33 17 5 23 3 19 -4 -10 -16 11 -12 25 5 7 9 19 14
26 11 6 -2 22 5 34 16 31 29 33 18 6 -23 -19 -27 -35 -38 -70 -46 -25 -5 -46
-6 -46 -2 0 5 -13 6 -30 3 -37 -8 -53 19 -24 42 18 14 18 14 -1 7 -17 -6 -18
-5 -7 10 12 14 10 18 -16 31 -15 8 -34 22 -41 30 -17 21 -7 21 13 0z m2716
-18 c0 -11 -19 -15 -25 -6 -3 5 1 10 9 10 9 0 16 -2 16 -4z m1346 -73 c-10
-10 -19 5 -10 18 6 11 8 11 12 0 2 -7 1 -15 -2 -18z m-4056 7 c13 -8 13 -10
-2 -10 -9 0 -20 5 -23 10 -8 13 5 13 25 0z m4155 -66 c-9 -18 -15 -23 -15 -12
0 9 4 19 10 23 5 3 6 13 3 23 -4 13 -3 14 6 6 9 -8 8 -18 -4 -40z m-4815 5 c0
-10 -4 -19 -10 -19 -5 0 -10 5 -10 10 0 6 -11 8 -25 6 -31 -6 -33 7 -2 21 28
13 47 6 47 -18z m-111 -14 c3 -16 1 -17 -11 -7 -8 6 -18 9 -22 5 -4 -4 -12 -1
-17 7 -8 12 -10 10 -6 -7 3 -13 1 -23 -4 -23 -5 0 -9 11 -9 26 0 22 3 25 32
21 23 -2 34 -9 37 -22z m151 -12 l-1 -38 -14 34 c-18 41 -18 41 0 41 11 0 15
-11 15 -37z m735 7 c3 -5 1 -10 -4 -10 -6 0 -11 5 -11 10 0 6 2 10 4 10 3 0 8
-4 11 -10z m-985 -15 c0 -8 -2 -15 -4 -15 -2 0 -6 7 -10 15 -3 8 -1 15 4 15 6
0 10 -7 10 -15z m1008 -29 c4 -18 -14 -46 -29 -46 -11 0 -12 54 -2 64 11 10
28 1 31 -18z m4082 -85 c0 -5 -7 -12 -16 -15 -14 -5 -15 -4 -4 9 14 17 20 19
20 6z m-4050 -31 c0 -5 -5 -10 -11 -10 -5 0 -7 5 -4 10 3 6 8 10 11 10 2 0 4
-4 4 -10z m2780 -120 c0 -5 -2 -10 -4 -10 -3 0 -8 5 -11 10 -3 6 -1 10 4 10 6
0 11 -4 11 -10z m-310 -40 c0 -5 -5 -10 -11 -10 -5 0 -7 5 -4 10 3 6 8 10 11
10 2 0 4 -4 4 -10z m311 -48 c-11 -4 -51 28 -51 41 0 4 14 -3 31 -15 16 -12
26 -24 20 -26z m-270 -80 c-7 -2 -18 1 -23 6 -8 8 -4 9 13 5 13 -4 18 -8 10
-11z m44 -62 c3 -5 1 -10 -4 -10 -6 0 -11 5 -11 10 0 6 2 10 4 10 3 0 8 -4 11
-10z"/>
<path d="M3565 3910 c-3 -5 -1 -10 4 -10 6 0 11 5 11 10 0 6 -2 10 -4 10 -3 0
-8 -4 -11 -10z"/>
<path d="M3495 3840 c3 -5 8 -10 11 -10 2 0 4 5 4 10 0 6 -5 10 -11 10 -5 0
-7 -4 -4 -10z"/>
<path d="M3717 3793 c-11 -11 -8 -23 6 -23 8 0 14 7 14 15 0 16 -9 19 -20 8z"/>
<path d="M4060 3458 c0 -6 3 -8 7 -5 3 4 12 2 20 -5 11 -8 12 -7 7 6 -7 18
-34 22 -34 4z"/>
<path d="M4017 3436 c-7 -17 18 -40 33 -31 16 10 12 25 -5 19 -11 -5 -13 -2
-9 10 3 9 2 16 -4 16 -5 0 -12 -6 -15 -14z"/>
<path d="M4541 3433 c0 -6 -4 -20 -7 -30 -5 -14 -4 -15 5 -7 7 7 11 20 8 30
-3 11 -5 14 -6 7z"/>
<path d="M4426 3362 c-2 -4 -1 -14 4 -22 7 -11 9 -9 7 8 -1 24 -3 26 -11 14z"/>
<path d="M4460 3359 c0 -5 5 -7 10 -4 6 3 10 8 10 11 0 2 -4 4 -10 4 -5 0 -10
-5 -10 -11z"/>
<path d="M3666 3227 c3 -10 9 -15 12 -12 3 3 0 11 -7 18 -10 9 -11 8 -5 -6z"/>
<path d="M4860 3281 c0 -23 5 -41 10 -41 6 0 10 15 10 34 0 19 -4 38 -10 41
-6 4 -10 -10 -10 -34z"/>
<path d="M4960 3281 c0 -5 5 -13 10 -16 6 -3 10 -2 10 4 0 5 -4 13 -10 16 -5
3 -10 2 -10 -4z"/>
<path d="M5030 3280 c0 -5 7 -7 15 -4 8 4 15 8 15 10 0 2 -7 4 -15 4 -8 0 -15
-4 -15 -10z"/>
<path d="M4897 3264 c-4 -4 -7 -14 -7 -23 0 -11 3 -12 11 -4 6 6 10 16 7 23
-2 6 -7 8 -11 4z"/>
<path d="M5065 3230 c3 -5 11 -10 16 -10 6 0 7 5 4 10 -3 6 -11 10 -16 10 -6
0 -7 -4 -4 -10z"/>
<path d="M4821 3184 c0 -11 3 -14 6 -6 3 7 2 16 -1 19 -3 4 -6 -2 -5 -13z"/>
<path d="M3280 3190 c0 -5 4 -10 9 -10 6 0 13 5 16 10 3 6 -1 10 -9 10 -9 0
-16 -4 -16 -10z"/>
<path d="M5455 3220 c-3 -5 1 -10 10 -10 9 0 13 5 10 10 -3 6 -8 10 -10 10 -2
0 -7 -4 -10 -10z"/>
<path d="M5345 3030 c-3 -5 -1 -10 4 -10 6 0 11 5 11 10 0 6 -2 10 -4 10 -3 0
-8 -4 -11 -10z"/>
<path d="M5628 3013 c7 -3 16 -2 19 1 4 3 -2 6 -13 5 -11 0 -14 -3 -6 -6z"/>
<path d="M5850 2700 l-25 -8 27 -1 c15 -1 30 4 33 9 7 11 0 11 -35 0z"/>
<path d="M5930 2660 c0 -5 6 -10 14 -10 8 0 18 5 21 10 3 6 -3 10 -14 10 -12
0 -21 -4 -21 -10z"/>
<path d="M1388 2654 c-5 -4 -8 -16 -8 -28 0 -14 3 -17 11 -9 6 6 9 19 7 28 -1
9 -6 13 -10 9z"/>
<path d="M1457 2653 c-2 -5 -1 -19 4 -33 7 -23 7 -23 8 8 1 31 -3 40 -12 25z"/>
<path d="M5615 2470 c-3 -5 -2 -10 4 -10 5 0 13 5 16 10 3 6 2 10 -4 10 -5 0
-13 -4 -16 -10z"/>
<path d="M5585 2371 c-3 -5 -1 -12 5 -16 5 -3 10 1 10 9 0 18 -6 21 -15 7z"/>
<path d="M5070 1960 c0 -5 5 -10 10 -10 6 0 10 5 10 10 0 6 -4 10 -10 10 -5 0
-10 -4 -10 -10z"/>
<path d="M4890 1770 c0 -5 7 -10 16 -10 8 0 12 5 9 10 -3 6 -10 10 -16 10 -5
0 -9 -4 -9 -10z"/>
<path d="M6380 1995 c-10 -12 -10 -15 4 -15 9 0 16 7 16 15 0 8 -2 15 -4 15
-2 0 -9 -7 -16 -15z"/>
</g>
</svg>
